<?xml version='1.0' encoding='utf-8'?>
<svg xmlns="http://www.w3.org/2000/svg" width="1920" height="1080" viewBox="0 0 1920 1080" data-theme="light" data-semantic-intent="taxonomy_list" data-relation-type="taxonomy" data-site-visual-identity="signal-cobalt">
  <style>
        @font-face {
            font-family: 'Inter';
            src: url('assets/fonts/Inter-Regular.ttf') format('truetype');
            font-weight: 400;
            font-style: normal;
            font-display: swap;
        }
        @font-face {
            font-family: 'Inter';
            src: url('assets/fonts/Inter-Bold.ttf') format('truetype');
            font-weight: 600;
            font-style: normal;
            font-display: swap;
        }
        @font-face {
            font-family: 'Inter';
            src: url('assets/fonts/Inter-Bold.ttf') format('truetype');
            font-weight: 800;
            font-style: normal;
            font-display: swap;
        }
        
:root {
    --background: #f8fafc;
    --panel: #ffffff;
    --primary-text: #0f172a;
    --muted-text: #64748b;
    --inverse-text: #ffffff;
    --border: #e2e8f0;
    --shadow-color: #000000;
    --icon-pad-bg: #1e293b;
    --art-glow: #0891b2;
    --art-glow-opacity: 0.10;
    --art-sheen: #ffffff;
    --art-sheen-opacity: 0.34;
    --art-shadow: #0f172a;
    --art-shadow-opacity: 0.14;
    --art-muted-line: #94a3b8;
    --art-panel-tint: #f1f5f9;
    --semantic-risk: #b91c1c;
    --semantic-warning: #c2410c;
    --semantic-uncertain: #a16207;
    --semantic-evidence: #1d4ed8;
    --semantic-claim: #6d28d9;
    --semantic-positive: #15803d;
    --semantic-outcome: #0e7490;
    --font-family: 'Inter', 'Segoe UI', 'Kalam', Roboto, Helvetica, Arial, sans-serif;
    --radius-xl: 16px;
    --font-family-headline: 'Segoe UI Variable Display', 'Aptos Display', 'Inter', 'Segoe UI', Helvetica, Arial, sans-serif;
    --font-family-body: 'Segoe UI Variable Text', 'Aptos', 'Inter', 'Segoe UI', Helvetica, Arial, sans-serif;
    --font-heading: var(--font-family-headline);
    --font-body: var(--font-family-body);
    --font-size-h1: 64px;
    --font-size-h2: 42px;
    --font-size-h3: 29px;
    --font-size-body: 21px;
    --font-size-caption: 17px;
    --secondary-text: var(--muted-text);
    --panel-border: var(--border);
    --font-weight-normal: 400;
    --font-weight-medium: 500;
    --font-weight-semibold: 600;
    --font-weight-bold: 700;
    --spacing-gutter-pct: 0.07;
    --spacing-top-pct: 0.15;
    --spacing-bottom-pct: 0.07;
    --spacing-title-y-pct: 0.055;
    --accent-1: #1d4ed8;
    --accent-2: #2563eb;
    --accent-3: #4f46e5;
    --accent-4: #6d28d9;
    --accent-5: #0369a1;
    --accent-6: #c2410c;
}
:root[data-theme="dark"] {
    --background: #0f172a;
    --panel: #1e293b;
    --primary-text: #f1f5f9;
    --muted-text: #94a3b8;
    --inverse-text: #0f172a;
    --border: #334155;
    --shadow-color: #000000;
    --icon-pad-bg: #1e293b;
    --art-glow: #7dd3fc;
    --art-glow-opacity: 0.18;
    --art-sheen: #ffffff;
    --art-sheen-opacity: 0.18;
    --art-shadow: #000000;
    --art-shadow-opacity: 0.28;
    --art-muted-line: #64748b;
    --art-panel-tint: #1e293b;
    --semantic-risk: #f87171;
    --semantic-warning: #fb923c;
    --semantic-uncertain: #fbbf24;
    --semantic-evidence: #60a5fa;
    --semantic-claim: #c084fc;
    --semantic-positive: #4ade80;
    --semantic-outcome: #22d3ee;
    --accent-1: #93c5fd;
    --accent-2: #60a5fa;
    --accent-3: #818cf8;
    --accent-4: #a78bfa;
    --accent-5: #38bdf8;
    --accent-6: #fb923c;
}
:root[data-theme="light"] {
    --background: #f8fafc;
    --panel: #ffffff;
    --primary-text: #0f172a;
    --muted-text: #64748b;
    --inverse-text: #ffffff;
    --border: #e2e8f0;
    --shadow-color: #000000;
    --icon-pad-bg: #1e293b;
    --art-glow: #0891b2;
    --art-glow-opacity: 0.10;
    --art-sheen: #ffffff;
    --art-sheen-opacity: 0.34;
    --art-shadow: #0f172a;
    --art-shadow-opacity: 0.14;
    --art-muted-line: #94a3b8;
    --art-panel-tint: #f1f5f9;
    --semantic-risk: #b91c1c;
    --semantic-warning: #c2410c;
    --semantic-uncertain: #a16207;
    --semantic-evidence: #1d4ed8;
    --semantic-claim: #6d28d9;
    --semantic-positive: #15803d;
    --semantic-outcome: #0e7490;
    --accent-1: #1d4ed8;
    --accent-2: #2563eb;
    --accent-3: #4f46e5;
    --accent-4: #6d28d9;
    --accent-5: #0369a1;
    --accent-6: #c2410c;
}</style>
  <rect x="0" y="0" width="1.92E+3" height="1.08E+3" fill="#f8fafc" stroke="none" id="programmatic_background"/>
  <line id="HEADER_DECOR" x1="960.0" x2="1080.0" y1="90.0" y2="90.0" stroke="var(--accent-1)" stroke-width="6" stroke-linecap="round"/>
  <defs>
    <pattern id="svgfd43fd9e-napkin-hatch" patternUnits="userSpaceOnUse" width="12" height="12">
      <path d="M -3 12 L 12 -3 M 0 15 L 15 0" fill="none" stroke="var(--primary-text)" stroke-width="1" stroke-opacity="0.05"/>
    </pattern>
    <filter id="svgfd43fd9e-shadow" x="-30%" y="-30%" width="160%" height="160%">
      <feDropShadow dx="0" dy="2" stdDeviation="3" flood-color="#000000" flood-opacity="0.08"/>
      <feDropShadow dx="0" dy="6" stdDeviation="10" flood-color="#000000" flood-opacity="0.12"/>
    </filter>
    <radialGradient id="svgfd43fd9e-universal-edge-vignette" cx="50%" cy="50%" r="72%">
      <stop offset="0%" stop-color="var(--background)" stop-opacity="0"/>
      <stop offset="72%" stop-color="var(--background)" stop-opacity="0.12"/>
      <stop offset="100%" stop-color="var(--primary-text)" stop-opacity="0.08"/>
    </radialGradient>
    <linearGradient id="svgfd43fd9e-universal-surface-sheen" x1="0%" y1="0%" x2="100%" y2="100%">
      <stop offset="0%" stop-color="var(--art-sheen)" stop-opacity="var(--art-sheen-opacity)"/>
      <stop offset="46%" stop-color="var(--art-sheen)" stop-opacity="0.035"/>
      <stop offset="100%" stop-color="var(--art-panel-tint)" stop-opacity="0.14"/>
    </linearGradient>
    <radialGradient id="svgfd43fd9e-universal-icon-aura" cx="50%" cy="42%" r="64%">
      <stop offset="0%" stop-color="var(--art-glow)" stop-opacity="var(--art-glow-opacity)"/>
      <stop offset="100%" stop-color="var(--background)" stop-opacity="0"/>
    </radialGradient>
    <radialGradient id="svgfd43fd9e-venn-center-glow" cx="50%" cy="50%" r="60%">
      <stop offset="0%" stop-color="var(--art-glow)" stop-opacity="var(--art-glow-opacity)"/>
      <stop offset="100%" stop-color="var(--background)" stop-opacity="0"/>
    </radialGradient>
    <linearGradient id="svgfd43fd9e-venn-label-sheen" x1="0%" y1="0%" x2="100%" y2="100%">
      <stop offset="0%" stop-color="var(--inverse-text)" stop-opacity="0.14"/>
      <stop offset="100%" stop-color="var(--background)" stop-opacity="0.12"/>
    </linearGradient>
    <filter id="svgfd43fd9e-text-glow" x="-20%" y="-20%" width="140%" height="140%">
      <feDropShadow dx="0" dy="0" stdDeviation="2" flood-color="#000000" flood-opacity="0.4"/>
    </filter>
    <marker id="svgfd43fd9e-arrowhead" markerWidth="10" markerHeight="7" refX="9" refY="3.5" orient="auto" markerUnits="strokeWidth">
      <polygon points="0 0, 10 3.5, 0 7" fill="var(--muted-text)" opacity="0.6"/>
    </marker>
  </defs>
  <rect width="100%" height="100%" fill="var(--background)" id="CANVAS_BG"/>
  <rect width="100%" height="100%" fill="url(#svgfd43fd9e-napkin-hatch)"/>
  <rect id="UNIVERSAL_EDGE_VIGNETTE" width="100%" height="100%" fill="url(#svgfd43fd9e-universal-edge-vignette)" opacity="0.62"/>
  <text id="TITLE" x="960.0" y="59" text-anchor="middle" font-weight="800" font-size="50" fill="#0f172a" style="font-size: 69px; font-family: 'Segoe UI Variable Display', 'Aptos Display', 'Inter', 'Segoe UI', Helvetica, Arial, sans-serif; font-weight: 800; font-kerning: normal; font-feature-settings: &quot;kern&quot; 1, &quot;liga&quot; 1; letter-spacing:-1.2px;" data-final-font-size="69">
    <tspan x="960.0" dy="70.47px">Physical Traits of the Varginha Figure</tspan>
  </text>
  <rect id="TITLE_FRAME" x="134" y="30" width="1652" height="70" fill="none"/>
  <g id="DIAGRAM_MAIN" transform="translate(960, 580)">
    <circle id="VENN_ART_CENTER_GLOW" cx="0" cy="0" r="255" fill="url(#svgfd43fd9e-venn-center-glow)" opacity="0.95"/>
    <circle cx="0" cy="0" r="255" fill="url(#svgfd43fd9e-venn-center-glow)" opacity="0.95"/>
    <circle cx="0" cy="0" r="255" fill="url(#svgfd43fd9e-venn-center-glow)" opacity="0.95"/>
    <circle cx="0" cy="0" r="255" fill="url(#svgfd43fd9e-venn-center-glow)" opacity="0.95"/>
    <circle cx="0" cy="0" r="255" fill="url(#svgfd43fd9e-venn-center-glow)" opacity="0.95"/>
    <circle cx="0" cy="0" r="255" fill="url(#svgfd43fd9e-venn-center-glow)" opacity="0.95"/>
    <circle cx="0" cy="0" r="255" fill="url(#svgfd43fd9e-venn-center-glow)" opacity="0.95"/>
    <circle cx="0" cy="0" r="255" fill="url(#svgfd43fd9e-venn-center-glow)" opacity="0.95"/>
    <circle cx="0" cy="0" r="255" fill="url(#svgfd43fd9e-venn-center-glow)" opacity="0.95"/>
    <circle cx="0" cy="0" r="255" fill="url(#svgfd43fd9e-venn-center-glow)" opacity="0.95"/>
    <circle cx="0" cy="0" r="255" fill="url(#svgfd43fd9e-venn-center-glow)" opacity="0.95"/>
    <circle cx="0" cy="0" r="255" fill="url(#svgfd43fd9e-venn-center-glow)" opacity="0.95"/>
    <circle cx="0" cy="0" r="255" fill="url(#svgfd43fd9e-venn-center-glow)" opacity="0.95"/>
    <circle cx="0" cy="0" r="255" fill="url(#svgfd43fd9e-venn-center-glow)" opacity="0.95"/>
    <circle cx="0" cy="0" r="255" fill="url(#svgfd43fd9e-venn-center-glow)" opacity="0.95"/>
    <circle cx="0" cy="0" r="255" fill="url(#svgfd43fd9e-venn-center-glow)" opacity="0.95"/>
    <circle cx="0" cy="0" r="255" fill="url(#svgfd43fd9e-venn-center-glow)" opacity="0.95"/>
    <circle cx="0" cy="0" r="255" fill="url(#svgfd43fd9e-venn-center-glow)" opacity="0.95"/>
    <circle cx="0" cy="0" r="255" fill="url(#svgfd43fd9e-venn-center-glow)" opacity="0.95"/>
    <circle cx="0" cy="0" r="255" fill="url(#svgfd43fd9e-venn-center-glow)" opacity="0.95"/>
    <circle cx="0" cy="0" r="255" fill="url(#svgfd43fd9e-venn-center-glow)" opacity="0.95"/>
    <circle cx="0" cy="0" r="255" fill="url(#svgfd43fd9e-venn-center-glow)" opacity="0.95"/>
    <circle cx="0" cy="0" r="255" fill="url(#svgfd43fd9e-venn-center-glow)" opacity="0.95"/>
    <circle cx="0" cy="0" r="255" fill="url(#svgfd43fd9e-venn-center-glow)" opacity="0.95"/>
    <circle cx="0" cy="0" r="255" fill="url(#svgfd43fd9e-venn-center-glow)" opacity="0.95"/>
    <circle cx="0" cy="0" r="255" fill="url(#svgfd43fd9e-venn-center-glow)" opacity="0.95"/>
    <!-- Circle backgrounds (pentagon arrangement) -->
    <!-- r=120, center offset 140 from origin -->
    <circle id="ITEM_1_BG" cx="0" cy="-140" r="180" fill="var(--accent-1)" fill-opacity="1.0" stroke="var(--border)" stroke-width="2"/>
    <circle id="ITEM_2_BG" cx="133" cy="-43" r="180" fill="var(--accent-2)" fill-opacity="1.0" stroke="var(--border)" stroke-width="2"/>
    <circle id="ITEM_3_BG" cx="82" cy="113" r="180" fill="var(--accent-3)" fill-opacity="1.0" stroke="var(--border)" stroke-width="2"/>
    <circle id="ITEM_4_BG" cx="-82" cy="113" r="180" fill="var(--accent-1)" fill-opacity="1.0" stroke="var(--border)" stroke-width="2"/>
    <circle id="ITEM_5_BG" cx="-133" cy="-43" r="180" fill="var(--accent-2)" fill-opacity="1.0" stroke="var(--border)" stroke-width="2"/>
    <!-- ITEM 1 - Top -->
    <circle id="ITEM_1_PAD" cx="0" cy="-270" r="48" fill="var(--icon-pad-bg)" stroke="var(--accent-1)" opacity="1" fill-opacity="0.9" stroke-width="2" stroke-opacity="0.72" data-badge-layer="pad"/>
    <circle id="ITEM_1_PAD_INNER" cx="0" cy="-270" r="37.44" fill="var(--accent-1)" fill-opacity="0.12" stroke="none" data-badge-layer="tint"/>
    <circle cx="0" cy="-270" r="38" fill="none" stroke="var(--accent-1)" stroke-width="3" stroke-dasharray="6 4" display="none" data-suppressed-decoration="redundant-badge-ring"/>
    <g id="ITEM_1_ICON" transform="translate(-27, -297)" data-icon-size="54" stroke-linecap="round" stroke-linejoin="round" data-badge-treatment="clean">
      <g transform="translate(-22.919999999999998,-22.919999999999998) scale(4.16)" vector-effect="non-scaling-stroke" fill="#f1f5f9" fill-opacity="1.0" stroke="none">
        <path fill="#f1f5f9" d="M13 3C9.2 3 6.2 5.9 6 9.7l-1.9 2.5c-.2.3 0 .8.4.8H6v3c0 1.1.9 2 2 2h1v3h7v-4.7c2.4-1.1 4-3.5 4-6.3c0-3.9-3.1-7-7-7" vector-effect="non-scaling-stroke" stroke="none"/>
      </g>
    </g>
    <rect id="ITEM_1_TEXT_BG" x="-208.0" y="-236.0" width="416.0" height="184.0" rx="16" fill="var(--panel)" fill-opacity="0.94" stroke="var(--primary-text)" stroke-opacity="0.12" stroke-width="1.5"/>
    <rect x="-208.0" y="-236.0" width="416.0" height="184.0" rx="16" fill="url(#svgfd43fd9e-venn-label-sheen)" opacity="0.85"/>
    <text id="ITEM_1_HEAD" x="0.0" y="-220.0" text-anchor="middle" font-weight="bold" font-size="34" fill="var(--accent-1)" data-bg-id="ITEM_1_TEXT_BG" opacity="0.98" fill-opacity="1.0" style="font-size: 31px; font-family: 'Segoe UI Variable Display', 'Aptos Display', 'Inter', 'Segoe UI', Helvetica, Arial, sans-serif; font-weight: 700; font-kerning: normal; font-feature-settings: &quot;kern&quot; 1, &quot;liga&quot; 1; letter-spacing:-0.4px;" data-final-font-size="31">
      <tspan x="0.0" dy="31.52px">Large Head</tspan>
    </text>
    <rect id="ITEM_1_HEAD_FRAME" x="-170" y="-220" width="340" height="46" fill="none"/>
    <text id="ITEM_1_BODY" x="0.0" y="-168.0" text-anchor="middle" font-size="20" fill="var(--primary-text)" data-bg-id="ITEM_1_TEXT_BG" style="font-size: 23px; font-family: 'Segoe UI Variable Text', 'Aptos', 'Inter', 'Segoe UI', Helvetica, Arial, sans-serif; font-weight: 400; font-kerning: normal; font-feature-settings: &quot;kern&quot; 1, &quot;liga&quot; 1;" data-final-font-size="23">
      <tspan x="0.0" dy="27.82px">Witnesses noted an unusually</tspan>
      <tspan x="0.0" dy="26.45px">oversized head structure</tspan>
    </text>
    <rect id="ITEM_1_BODY_FRAME" x="-190" y="-168" width="380" height="100" fill="none"/>
    <!-- ITEM 2 - Top Right -->
    <circle id="ITEM_2_PAD" cx="256" cy="-83" r="48" fill="var(--icon-pad-bg)" stroke="var(--accent-2)" opacity="1" fill-opacity="0.9" stroke-width="2" stroke-opacity="0.72" data-badge-layer="pad"/>
    <circle id="ITEM_2_PAD_INNER" cx="256" cy="-83" r="37.44" fill="var(--accent-2)" fill-opacity="0.12" stroke="none" data-badge-layer="tint"/>
    <circle cx="256" cy="-83" r="38" fill="none" stroke="var(--accent-2)" stroke-width="3" stroke-dasharray="6 4" display="none" data-suppressed-decoration="redundant-badge-ring"/>
    <g id="ITEM_2_ICON" transform="translate(229, -110)" data-icon-size="54" stroke-linecap="round" stroke-linejoin="round" data-badge-treatment="clean">
      <g transform="translate(-13.586218487394955,-12.956974789915964) scale(0.1573109243697479)" vector-effect="non-scaling-stroke" fill="#f1f5f9" fill-opacity="1.0" stroke="none">
        <path fill="#f1f5f9" d="M256.242 19.143q-1.95.011-3.896.054c-8.782.195-17.528.884-26.198 2.053l13.957 18.725L276.9 68.008l-48.474-11.682l-22.586-31.424a235.5 235.5 0 0 0-68.522 27.258l4.67 19.35l58.403 10.51l-2.335 50.812l-17.522-35.623l-53.728-9.347l-6.063-24.886a233.3 233.3 0 0 0-41.679 38.227l13.866 45.06l54.898 8.176l-68.33 13.433l-14.633-48.287a239 239 0 0 0-10.844 17.068c-12.047 20.868-20.527 42.807-25.64 65.114l49.368 23.92l49.06-.58l-49.06 21.607l-18.105-8.81v25.747h30.37l-49.058 18.69v-53.526l-16.13-7.847c-5.85 41.047-.63 82.657 14.546 120.55l21.44-23.553l12.37 11.498l34.103-12.99l-21.453 24.75l16.443 15.285l-40.296-12.264l-14.17 15.908a233.7 233.7 0 0 0 35.44 51.586l40.896-.158l-28.047 13.262a236 236 0 0 0 43.89 32.63c112.427 64.91 255.91 26.462 320.82-85.964c64.91-112.427 26.464-255.91-85.962-320.82c-21.172-12.224-43.447-20.773-66.09-25.862l9.207 25.723l-29.07-29.292a234 234 0 0 0-32.648-2.115zm81.076 126.125c21.167.245 42.198 5.62 61.43 16.72c65.644 37.893 83.97 127.31 42.557 199.026c-41.41 71.71-128.022 100.554-193.666 62.662s-83.97-127.31-42.558-199.026c28.47-49.303 78.305-78.34 128.002-79.363a130 130 0 0 1 4.234-.02zm-.59 18.67a111 111 0 0 0-3.654.023c-18.408.41-36.93 5.29-54.09 14.185l34.21 53.44a87.7 87.7 0 0 0-15.227 10.874l-34.947-54.59c-16.317 11.548-30.75 27.068-41.754 46.126a154 154 0 0 0-2.27 4.092l62.068 24.504a91.4 91.4 0 0 0-8.17 16.867l-61.72-24.366c-10.588 27.475-12.18 56.18-5.824 81.922l62.4-21.23c.464 6.36 1.638 12.59 3.516 18.544l-60.073 20.44c9.103 21.78 24.502 40.32 45.436 52.51l30.73-45a69.4 69.4 0 0 0 14.5 11.904l-28.08 41.12c20.49 7.43 42.64 8.273 64.046 3.23l.31-33.95c6.27.064 12.55-.674 18.71-2.166l-.276 30.12c12.81-5.225 25.06-12.622 36.186-22.013l-11.71-18.29a88 88 0 0 0 14.808-11.53l10.613 16.578a149 149 0 0 0 18.654-25.615c1.91-3.307 3.67-6.652 5.294-10.023l-16.094-6.354c2.808-5.71 4.987-11.582 6.504-17.522l16.633 6.566c5.45-16.308 7.792-32.934 7.25-49.018l-22.186 7.55a79 79 0 0 0-5.09-18.01l25.246-8.588c-3.6-19.748-11.75-38.048-24.008-53.122l-22.637 33.147a70 70 0 0 0-8.602-5.852a71 71 0 0 0-7.487-3.725l25.425-37.23a105.56 105.56 0 0 0-46.547-23.094l-.502 54.96c-2.52-.213-5.05-.3-7.58-.248c-3.716.073-7.43.437-11.115 1.06l.532-58.135q-1.71-.07-3.423-.09zm15.786 75.83c3.027.026 6.037.308 9.006.84c-7.354 7.116-12.168 18.937-12.168 32.326c0 21.752 12.7 39.384 28.367 39.384c12.172 0 22.55-10.647 26.577-25.597c2.1 14.36-.655 30.18-9.07 44.72c-18.287 31.595-55.212 43.19-82.24 27.623c-27.03-15.567-35.414-53.21-17.128-84.805c12.57-21.722 33.953-33.99 54.872-34.477a56 56 0 0 1 1.782-.012z" vector-effect="non-scaling-stroke" stroke="none"/>
      </g>
    </g>
    <rect id="ITEM_2_TEXT_BG" x="322.0" y="-156.0" width="416.0" height="204.0" rx="16" fill="var(--panel)" fill-opacity="0.94" stroke="var(--primary-text)" stroke-opacity="0.12" stroke-width="1.5"/>
    <rect x="322.0" y="-156.0" width="416.0" height="204.0" rx="16" fill="url(#svgfd43fd9e-venn-label-sheen)" opacity="0.85"/>
    <text id="ITEM_2_HEAD" x="340.0" y="-140.0" text-anchor="start" font-weight="bold" font-size="34" fill="var(--accent-2)" data-bg-id="ITEM_2_TEXT_BG" opacity="0.98" fill-opacity="1.0" style="font-size: 31px; font-family: 'Segoe UI Variable Display', 'Aptos Display', 'Inter', 'Segoe UI', Helvetica, Arial, sans-serif; font-weight: 700; font-kerning: normal; font-feature-settings: &quot;kern&quot; 1, &quot;liga&quot; 1; letter-spacing:-0.4px;" data-final-font-size="31">
      <tspan x="340.0" dy="32.52px">Red Eyes</tspan>
    </text>
    <rect id="ITEM_2_HEAD_FRAME" x="340" y="-140" width="260" height="48" fill="none"/>
    <text id="ITEM_2_BODY" x="340.0" y="-88.0" text-anchor="start" font-size="20" fill="var(--primary-text)" data-bg-id="ITEM_2_TEXT_BG" style="font-size: 23px; font-family: 'Segoe UI Variable Text', 'Aptos', 'Inter', 'Segoe UI', Helvetica, Arial, sans-serif; font-weight: 400; font-kerning: normal; font-feature-settings: &quot;kern&quot; 1, &quot;liga&quot; 1;" data-final-font-size="23">
      <tspan x="340.0" dy="31.82px">Prominent and large red eyes were</tspan>
      <tspan x="340.0" dy="26.45px">clearly visible</tspan>
    </text>
    <rect id="ITEM_2_BODY_FRAME" x="340" y="-88" width="380" height="120" fill="none"/>
    <!-- ITEM 3 - Bottom Right -->
    <circle id="ITEM_3_PAD" cx="158" cy="220" r="48" fill="var(--icon-pad-bg)" stroke="var(--accent-3)" opacity="1" fill-opacity="0.9" stroke-width="2" stroke-opacity="0.72" data-badge-layer="pad"/>
    <circle id="ITEM_3_PAD_INNER" cx="158" cy="220" r="37.44" fill="var(--accent-3)" fill-opacity="0.12" stroke="none" data-badge-layer="tint"/>
    <circle cx="158" cy="220" r="38" fill="none" stroke="var(--accent-3)" stroke-width="3" stroke-dasharray="6 4" display="none" data-suppressed-decoration="redundant-badge-ring"/>
    <g id="ITEM_3_ICON" transform="translate(131, 193)" data-icon-size="54" stroke-linecap="round" stroke-linejoin="round" data-badge-treatment="clean">
      <g transform="translate(-26.247999999999998,-26.247999999999998) scale(2.6624)">
        <path d="M20.216,30.025c3.096,0,4.932-1.764,4.967-4.211,.036-2.736-1.62-4.176-5.291-4.176h-2.736v-3.887h2.628c2.843,0,4.607-1.656,4.607-3.924,0-2.231-1.548-3.851-4.284-3.851-2.592,0-4.463,1.439-4.823,3.635h-4.896c.504-4.355,4.751-7.559,9.719-7.559,5.292,0,9.035,3.024,9.035,7.271,0,3.096-1.908,5.507-5.291,6.155,3.779,.396,6.083,2.844,6.083,6.299,0,4.788-4.104,8.171-9.719,8.171-5.327,0-9.575-2.987-10.151-7.559h4.932c.576,2.304,2.448,3.636,5.219,3.636Z" fill="#afb7c0"/>
      </g>
    </g>
    <rect id="ITEM_3_TEXT_BG" x="224.0" y="154.0" width="416.0" height="202.0" rx="16" fill="var(--panel)" fill-opacity="0.94" stroke="var(--primary-text)" stroke-opacity="0.12" stroke-width="1.5"/>
    <rect x="224.0" y="154.0" width="416.0" height="202.0" rx="16" fill="url(#svgfd43fd9e-venn-label-sheen)" opacity="0.85"/>
    <text id="ITEM_3_HEAD" x="242.0" y="170.0" text-anchor="start" font-weight="bold" font-size="34" fill="var(--accent-3)" data-bg-id="ITEM_3_TEXT_BG" opacity="0.98" fill-opacity="1.0" style="font-size: 31px; font-family: 'Segoe UI Variable Display', 'Aptos Display', 'Inter', 'Segoe UI', Helvetica, Arial, sans-serif; font-weight: 700; font-kerning: normal; font-feature-settings: &quot;kern&quot; 1, &quot;liga&quot; 1; letter-spacing:-0.4px;" data-final-font-size="31">
      <tspan x="242.0" dy="32.52px">Horned Bumps</tspan>
    </text>
    <rect id="ITEM_3_HEAD_FRAME" x="242" y="170" width="260" height="48" fill="none"/>
    <text id="ITEM_3_BODY" x="242.0" y="220.0" text-anchor="start" font-size="20" fill="var(--primary-text)" data-bg-id="ITEM_3_TEXT_BG" style="font-size: 23px; font-family: 'Segoe UI Variable Text', 'Aptos', 'Inter', 'Segoe UI', Helvetica, Arial, sans-serif; font-weight: 400; font-kerning: normal; font-feature-settings: &quot;kern&quot; 1, &quot;liga&quot; 1;" data-final-font-size="23">
      <tspan x="242.0" dy="31.82px">Three rounded protrusions appeared</tspan>
      <tspan x="242.0" dy="26.45px">on the top of head</tspan>
    </text>
    <rect id="ITEM_3_BODY_FRAME" x="242" y="220" width="380" height="120" fill="none"/>
    <!-- ITEM 4 - Bottom Left -->
    <circle id="ITEM_4_PAD" cx="-158" cy="220" r="48" fill="var(--icon-pad-bg)" stroke="var(--accent-1)" opacity="1" fill-opacity="0.9" stroke-width="2" stroke-opacity="0.72" data-badge-layer="pad"/>
    <circle id="ITEM_4_PAD_INNER" cx="-158" cy="220" r="37.44" fill="var(--accent-1)" fill-opacity="0.12" stroke="none" data-badge-layer="tint"/>
    <circle cx="-158" cy="220" r="38" fill="none" stroke="var(--accent-4)" stroke-width="3" stroke-dasharray="6 4" display="none" data-suppressed-decoration="redundant-badge-ring"/>
    <g id="ITEM_4_ICON" transform="translate(-185, 193)" data-icon-size="54" stroke-linecap="round" stroke-linejoin="round" data-badge-treatment="clean">
      <g transform="translate(-15.788571428571423,-13.114285714285712) scale(0.33428571428571424)" vector-effect="non-scaling-stroke" stroke-width="2.36" stroke-linecap="round" stroke-linejoin="round" stroke-opacity="1.0">
        <path d="M208,144c0-72-80-128-80-128S48,72,48,144a80,80,0,0,0,160,0Z" fill="none" stroke="#f1f5f9" vector-effect="non-scaling-stroke"/>
        <path d="M136,192c20-3.37,36.61-20,40-40" fill="none" stroke="#f1f5f9" vector-effect="non-scaling-stroke"/>
      </g>
    </g>
    <rect id="ITEM_4_TEXT_BG" x="-640.0" y="154.0" width="416.0" height="202.0" rx="16" fill="var(--panel)" fill-opacity="0.94" stroke="var(--primary-text)" stroke-opacity="0.12" stroke-width="1.5"/>
    <rect x="-640.0" y="154.0" width="416.0" height="202.0" rx="16" fill="url(#svgfd43fd9e-venn-label-sheen)" opacity="0.85"/>
    <text id="ITEM_4_HEAD" x="-242.0" y="170.0" text-anchor="end" font-weight="bold" font-size="34" fill="var(--accent-1)" data-bg-id="ITEM_4_TEXT_BG" opacity="0.98" fill-opacity="1.0" style="font-size: 31px; font-family: 'Segoe UI Variable Display', 'Aptos Display', 'Inter', 'Segoe UI', Helvetica, Arial, sans-serif; font-weight: 700; font-kerning: normal; font-feature-settings: &quot;kern&quot; 1, &quot;liga&quot; 1; letter-spacing:-0.4px;" data-final-font-size="31">
      <tspan x="-242.0" dy="32.52px">Oily Skin</tspan>
    </text>
    <rect id="ITEM_4_HEAD_FRAME" x="-502" y="170" width="260" height="48" fill="none"/>
    <text id="ITEM_4_BODY" x="-242.0" y="220.0" text-anchor="end" font-size="20" fill="var(--primary-text)" data-bg-id="ITEM_4_TEXT_BG" style="font-size: 23px; font-family: 'Segoe UI Variable Text', 'Aptos', 'Inter', 'Segoe UI', Helvetica, Arial, sans-serif; font-weight: 400; font-kerning: normal; font-feature-settings: &quot;kern&quot; 1, &quot;liga&quot; 1;" data-final-font-size="23">
      <tspan x="-242.0" dy="31.82px">Dark brown skin appeared shiny</tspan>
      <tspan x="-242.0" dy="26.45px">or oily in texture</tspan>
    </text>
    <rect id="ITEM_4_BODY_FRAME" x="-622" y="220" width="380" height="120" fill="none"/>
    <!-- ITEM 5 - Top Left -->
    <circle id="ITEM_5_PAD" cx="-256" cy="-83" r="48" fill="var(--icon-pad-bg)" stroke="var(--accent-2)" opacity="1" fill-opacity="0.9" stroke-width="2" stroke-opacity="0.72" data-badge-layer="pad"/>
    <circle id="ITEM_5_PAD_INNER" cx="-256" cy="-83" r="37.44" fill="var(--accent-2)" fill-opacity="0.12" stroke="none" data-badge-layer="tint"/>
    <circle cx="-256" cy="-83" r="38" fill="none" stroke="var(--accent-5)" stroke-width="3" stroke-dasharray="6 4" display="none" data-suppressed-decoration="redundant-badge-ring"/>
    <g id="ITEM_5_ICON" transform="translate(-283, -110)" data-icon-size="54" stroke-linecap="round" stroke-linejoin="round" data-badge-treatment="clean">
      <g transform="translate(-12.936,-12.935999999999998) scale(0.624)">
        <path fill="#543930" d="M109.4 102.62c-1.62-2.96.45-5.96 3.98-9.68c5.6-5.91 11.7-19.6 6.04-33.51c.03-.08-1.12-2.42-1.08-2.5l-2.34-.12c-.75-.11-26.36-.16-52-.16s-51.25.05-52 .16c0 0-3.45 2.54-3.42 2.61c-5.66 13.91.44 27.6 6.04 33.51c3.53 3.72 5.6 6.73 3.98 9.68c-1.57 2.87-6.26 3.29-6.26 3.29s1.08 2.94 3.69 4.52c2.41 1.46 5.37 1.81 7.42 1.86c0 0 8 11.07 28.92 11.07h23.28c20.92 0 28.92-11.07 28.92-11.07c2.05-.05 5.01-.39 7.42-1.86c2.61-1.58 3.69-4.52 3.69-4.52s-4.7-.41-6.28-3.28"/>
        <path fill="url(#SVGdY9H5bIF)" d="M63.99 123.36v-12.29l37.18-2.94l3.38 4.16s-8 11.07-28.92 11.07z"/>
        <path fill="url(#SVGRjr3JbiW)" d="M104.46 106.93c-5.57-8.46 6.78-11.61 6.78-11.61l.01.01c-2.15 2.67-3.12 5-1.86 7.29c1.57 2.87 6.26 3.29 6.26 3.29s-6.38 5.68-11.19 1.02"/>
        <path fill="url(#SVGOt4A1cYO)" d="M119.45 59.42c5.53 13.47-.29 27.34-5.74 33.19c-.75.8-3.92 3.92-4.64 6.4c0 0-12.42-17.31-16.12-27.49c-.75-2.05-1.43-4.17-1.52-6.35c-.07-1.64.19-3.59 1.13-4.98c1.16-1.71 26.23-2.21 26.23-2.21c0 .02.66 1.44.66 1.44"/>
        <path fill="url(#SVGadeejcri)" d="M8.58 59.42c-5.52 13.47.29 27.34 5.74 33.19c.75.8 3.92 3.92 4.64 6.4c0 0 12.42-17.31 16.12-27.49c.75-2.05 1.43-4.17 1.52-6.35c.07-1.64-.19-3.59-1.13-4.98c-1.16-1.71-2.51-1.25-4.47-1.25c-3.75 0-20.15-.96-21.42-.96c0 .02-1 1.44-1 1.44"/>
        <path fill="url(#SVG92L0meJe)" d="M64.04 123.36v-12.29l-37.18-2.94l-3.38 4.16s8 11.07 28.92 11.07z"/>
        <path fill="url(#SVGSvHQJe3Z)" d="M23.57 106.93c5.57-8.46-6.78-11.61-6.78-11.61l-.01.01c2.15 2.67 3.12 5 1.86 7.29c-1.57 2.87-6.26 3.29-6.26 3.29s6.38 5.68 11.19 1.02"/>
        <path fill="#E59600" d="M99.55 64.37h-71.1c-7.67 0-13.94 6.68-13.94 14.85s6.27 14.85 13.94 14.85h71.11c7.67 0 13.94-6.68 13.94-14.85s-6.28-14.85-13.95-14.85"/>
        <path fill="#FFCA28" d="M64 13.15c-22.64 0-43.61 24.21-43.61 59.06C20.39 106.87 42 124 64 124s43.61-17.13 43.61-51.79c0-34.84-20.97-59.06-43.61-59.06"/>
        <path fill="#E59600" d="M69.02 87.29a1.6 1.6 0 0 0-.42-.11h-9.2c-.14.02-.28.05-.42.11c-.83.34-1.29 1.2-.9 2.12c.4.92 2.23 3.5 5.92 3.5s5.52-2.58 5.92-3.5s-.06-1.78-.9-2.12"/>
        <path fill="#795548" d="M74.95 97.71c-4.14 2.46-17.73 2.46-21.87 0c-2.38-1.42-4.81.75-3.82 2.91c.97 2.12 8.38 7.06 14.79 7.06s13.72-4.93 14.7-7.06c.98-2.16-1.42-4.32-3.8-2.91"/>
        <ellipse cx="42.9" cy="75.23" rx="6.32" ry="6.55"/>
        <ellipse cx="85.1" cy="75.23" rx="6.32" ry="6.55"/>
        <path fill="#6D4C41" d="M52.29 63.47c-1.2-1.59-3.99-3.91-9.39-3.91s-8.19 2.32-9.39 3.91c-.53.71-.4 1.52-.03 2.01c.34.46 1.35.88 2.47.5s3.3-1.51 6.95-1.53c3.65.03 5.84 1.15 6.95 1.53s2.13-.04 2.47-.5c.37-.49.5-1.3-.03-2.01m42.21 0c-1.2-1.59-3.99-3.91-9.39-3.91s-8.19 2.32-9.39 3.91c-.53.71-.4 1.52-.03 2.01c.34.46 1.35.88 2.47.5s3.3-1.51 6.95-1.53c3.65.03 5.84 1.15 6.95 1.53c1.12.38 2.13-.04 2.47-.5c.36-.49.5-1.3-.03-2.01"/>
        <path fill="#543930" d="M116.14 31.41c-3.18-4.81-10.29-11.25-16.68-11.67C98.44 13.6 91.86 8.4 85.5 6.38c-17.21-5.45-28.42.66-34.43 3.94c-1.25.68-9.33 5.16-14.98 1.95c-3.54-2.01-3.47-7.46-3.47-7.46s-11.09 4.22-7.3 16c-3.81.16-8.81 1.76-11.45 7.11c-3.15 6.37-2.03 11.7-1.12 14.25c-3.28 2.78-7.4 8.71-4.57 16.4c2.13 5.79 10.63 8.45 10.63 8.45c-.6 10.42 1.34 16.84 2.37 19.43c.18.45.83.41.94-.06c1.28-5.16 5.68-23.15 5.24-26.29c0 0 14.76-2.93 28.84-13.29c2.87-2.11 5.97-3.91 9.27-5.22c17.68-7.04 21.38 4.97 21.38 4.97s12.25-2.35 15.95 14.67c1.39 6.38 2.33 16.59 3.12 23.73c.06.5.74.61.94.14c1.24-2.83 3.71-8.46 4.3-14.19c.21-2.02 5.65-4.69 7.98-13.35c3.14-11.57-.71-22.68-3-26.15"/>
        <path fill="url(#SVGUAEvgdOr)" d="M111.12 70.95c.21-2.02 5.65-4.69 7.98-13.35c.25-.92.46-1.86.65-2.8c1.9-10.53-1.51-20.19-3.63-23.39c-2.94-4.44-9.24-10.27-15.22-11.46c-.52-.07-1.03-.13-1.51-.16c0 0 .43 2.79-.7 5.02c-1.46 2.89-4.43 3.57-4.43 3.57c15.59 15.59 14.48 28.63 16.86 42.57"/>
        <path fill="url(#SVGHbEfrehY)" d="M54.83 8.35c-1.42.69-2.68 1.38-3.77 1.97c-1.25.68-9.33 5.16-14.98 1.95c-3.48-1.98-3.48-7.26-3.47-7.45c-1.6 2.04-6.44 16.63 7.71 17.6c6.1.42 9.87-4.9 12.09-9.41c.81-1.63 2.08-4.02 2.42-4.66"/>
        <path fill="url(#SVGiVALXc3N)" d="M83.72 5.85c9.52 2.58 14.17 7.42 15.72 13.9c.46 1.9 1 19.62-32.83-.52c-12.58-7.49-9.15-12.18-7.67-12.71c5.75-2.09 14.11-3.56 24.78-.67"/>
        <path fill="url(#SVGeHA2TZmO)" d="M32.57 4.82c-.02.01-.04.02-.08.03h-.01c-1.21.51-10.73 4.91-7.17 15.94l10.13 1.63C26.48 13.35 32.61 4.8 32.61 4.8z"/>
        <path fill="url(#SVGUakULe3y)" d="m31.57 21.81l-6.26-1.01c-.24 0-1.08.08-1.53.14c-3.52.49-7.68 2.31-9.92 6.98c-2.42 5.02-2.35 9.33-1.7 12.21c.19.97.58 2.05.58 2.05s3.1-2.94 10.47-3.13z"/>
        <path fill="url(#SVGxypvjeKx)" d="M12.44 42.42c-3.08 2.74-7.24 8.84-4.17 16.4c2.31 5.71 10.53 8.19 10.53 8.19c0 .03 1.64.51 2.49.51l1.92-28.49c-3.94 0-7.72 1.18-10.17 2.88c.02.06-.61.47-.6.51"/>
      </g>
    </g>
    <rect id="ITEM_5_TEXT_BG" x="-738.0" y="-156.0" width="416.0" height="204.0" rx="16" fill="var(--panel)" fill-opacity="0.94" stroke="var(--primary-text)" stroke-opacity="0.12" stroke-width="1.5"/>
    <rect x="-738.0" y="-156.0" width="416.0" height="204.0" rx="16" fill="url(#svgfd43fd9e-venn-label-sheen)" opacity="0.85"/>
    <text id="ITEM_5_HEAD" x="-340.0" y="-140.0" text-anchor="end" font-weight="bold" font-size="34" fill="var(--accent-2)" data-bg-id="ITEM_5_TEXT_BG" opacity="0.98" fill-opacity="1.0" style="font-size: 31px; font-family: 'Segoe UI Variable Display', 'Aptos Display', 'Inter', 'Segoe UI', Helvetica, Arial, sans-serif; font-weight: 700; font-kerning: normal; font-feature-settings: &quot;kern&quot; 1, &quot;liga&quot; 1; letter-spacing:-0.4px;" data-final-font-size="31">
      <tspan x="-340.0" dy="32.52px">Crouched Posture</tspan>
    </text>
    <rect id="ITEM_5_HEAD_FRAME" x="-600" y="-140" width="260" height="48" fill="none"/>
    <text id="ITEM_5_BODY" x="-340.0" y="-88.0" text-anchor="end" font-size="20" fill="var(--primary-text)" data-bg-id="ITEM_5_TEXT_BG" style="font-size: 23px; font-family: 'Segoe UI Variable Text', 'Aptos', 'Inter', 'Segoe UI', Helvetica, Arial, sans-serif; font-weight: 400; font-kerning: normal; font-feature-settings: &quot;kern&quot; 1, &quot;liga&quot; 1;" data-final-font-size="23">
      <tspan x="-340.0" dy="31.82px">The figure remained close to the</tspan>
      <tspan x="-340.0" dy="26.45px">ground rather than standing</tspan>
    </text>
    <rect id="ITEM_5_BODY_FRAME" x="-720" y="-88" width="380" height="120" fill="none"/>
  </g>
  <text id="SOURCE_NOTE" x="134.0" y="1058.0" fill="var(--muted-text)" opacity="1" style="font-family: var(--font-family); font-size: 20px;">Source: UFO Evidence The Varginha Incident (Brazil)</text>
</svg>
